<?xml version="1.0" encoding="UTF-8"?>
<svg width="178px" height="50px" viewBox="0 0 178 50" version="1.1" xmlns="http://www.w3.org/2000/svg" xmlns:xlink="http://www.w3.org/1999/xlink">
    <!-- Generator: Sketch 52.2 (67145) - http://www.bohemiancoding.com/sketch -->
    <title>logo</title>
    <desc>Created with Sketch.</desc>
    <g id="Logo" stroke="none" stroke-width="1" fill="none" fill-rule="evenodd">
        <g transform="translate(-27.000000, -21.000000)" fill="#00CBB2" id="logo">
            <g transform="translate(27.000000, 21.000000)">
                <path d="M56.392,15.196 L63.664,34.492 L70.72,15.52 L74.716,15.52 L65.356,40 L61.828,40 L52.36,15.772 L56.392,15.196 Z M88.3040001,34.744 L88.3040001,22.54 L92.3720001,22.54 L92.3720001,40 L89.6360001,40 L88.9160001,37.912 C87.9079951,38.7280041 86.8040061,39.3759976 85.6040001,39.856 C84.4039941,40.3360024 83.2760054,40.576 82.2200001,40.576 C78.3799809,40.576 76.4600001,38.3080227 76.4600001,33.772 L76.4600001,22.54 L80.4920001,22.54 L80.4920001,33.52 C80.4920001,35.9440121 81.3919911,37.156 83.1920001,37.156 C84.6560074,37.156 86.3599904,36.352008 88.3040001,34.744 Z M100.344,40 L96.3120002,40 L96.3120002,14.98 L100.344,14.584 L100.344,40 Z M109.108,22.684 L112.276,22.684 L113.5,25.78 L109.108,25.78 L109.108,34.096 C109.108,35.0320047 109.317998,35.7819972 109.738,36.346 C110.158002,36.9100028 110.787996,37.192 111.628,37.192 C112.180003,37.192 112.779997,37.0480014 113.428,36.76 L114.544,39.748 C114.183999,39.9880012 113.686003,40.1979991 113.05,40.378 C112.413997,40.5580009 111.832003,40.648 111.304,40.648 C109.359991,40.648 107.836006,40.144005 106.732,39.136 C105.627995,38.127995 105.076,36.6760095 105.076,34.78 L105.076,25.78 L102.664,25.78 L102.664,22.684 L105.076,22.684 L105.076,18.4 L109.108,17.608 L109.108,22.684 Z M128.384,34.744 L128.384,22.54 L132.452,22.54 L132.452,40 L129.716,40 L128.996,37.912 C127.987995,38.7280041 126.884006,39.3759976 125.684,39.856 C124.483994,40.3360024 123.356006,40.576 122.3,40.576 C118.459981,40.576 116.54,38.3080227 116.54,33.772 L116.54,22.54 L120.572,22.54 L120.572,33.52 C120.572,35.9440121 121.471991,37.156 123.272,37.156 C124.736008,37.156 126.439991,36.352008 128.384,34.744 Z M140.064001,28.876 L140.064001,40 L136.032001,40 L136.032001,22.54 L138.192001,22.54 L139.524,25.42 C140.388005,24.6999964 141.377995,24.040003 142.494001,23.44 C143.610006,22.839997 144.587996,22.54 145.428001,22.54 L146.256001,25.78 C145.391996,25.78 144.384006,26.079997 143.232001,26.68 C142.079995,27.280003 141.024005,28.0119957 140.064001,28.876 Z M163.408001,31.144 L163.408001,32.332 L151.312001,32.332 C151.672002,35.4520156 153.531984,37.012 156.892001,37.012 C157.828005,37.012 158.661997,36.8860013 159.394001,36.634 C160.126004,36.3819987 161.007995,35.9920026 162.040001,35.464 L163.264001,38.416 C161.319991,39.7600067 159.172012,40.432 156.820001,40.432 C153.651985,40.432 151.234009,39.6100082 149.566001,37.966 C147.897992,36.3219918 147.064001,34.0840142 147.064001,31.252 C147.064001,29.4279909 147.405997,27.8260069 148.090001,26.446 C148.774004,25.0659931 149.757994,23.9920038 151.042001,23.224 C152.326007,22.4559962 153.843992,22.072 155.596001,22.072 C158.164013,22.072 160.107994,22.9239915 161.428001,24.628 C162.748007,26.3320085 163.408001,28.5039868 163.408001,31.144 Z M151.384001,29.632 L159.520001,29.632 C159.304,28.2879933 158.860004,27.2680035 158.188001,26.572 C157.515997,25.8759965 156.616006,25.528 155.488001,25.528 C154.335995,25.528 153.406004,25.8879964 152.698001,26.608 C151.989997,27.3280036 151.552001,28.3359935 151.384001,29.632 Z M164.936001,38.776 L166.160001,35.968 C167.816009,36.760004 169.363994,37.156 170.804001,37.156 C171.716005,37.156 172.495997,36.9880017 173.144001,36.652 C173.792004,36.3159983 174.116001,35.8600029 174.116001,35.284 C174.116001,34.2279947 172.964012,33.3280037 170.660001,32.584 C166.819982,31.3359938 164.900001,29.5600115 164.900001,27.256 C164.900001,25.647992 165.499995,24.3820046 166.700001,23.458 C167.900007,22.5339954 169.53199,22.072 171.596001,22.072 C172.412005,22.072 173.389995,22.2279984 174.530001,22.54 C175.670006,22.8520016 176.623997,23.2719974 177.392001,23.8 L176.132001,26.536 C175.291997,26.1519981 174.518004,25.858001 173.810001,25.654 C173.101997,25.449999 172.340005,25.348 171.524001,25.348 C170.779997,25.348 170.156003,25.5279982 169.652001,25.888 C169.147998,26.2480018 168.896001,26.6919974 168.896001,27.22 C168.920001,27.628002 169.207998,27.9999983 169.760001,28.336 C170.312003,28.6720017 171.079996,29.0079983 172.064001,29.344 C176.024021,30.7600071 178.004001,32.6799879 178.004001,35.104 C178.004001,36.8080085 177.386007,38.1279953 176.150001,39.064 C174.913995,40.0000047 173.132012,40.468 170.804001,40.468 C169.939996,40.468 168.926007,40.3180015 167.762001,40.018 C166.597995,39.7179985 165.656004,39.3040026 164.936001,38.776 Z" id="Vultures-logo"></path>
                <g id="vultures-icon" fill-rule="nonzero">
                    <path d="M21.3425328,47.8864815 C21.225093,48.2593339 21.0097867,48.5969164 21,49 L30.1260521,48.9546531 C30.0722255,48.7984582 29.9498923,48.7581498 29.8177726,48.6775331 C29.5877863,48.5314153 29.3626933,48.380259 29.132707,48.2240641 C28.2225484,47.6144001 27.2928166,47.0349674 26.4022314,46.3950722 C26.1575651,46.2187231 25.8982188,46.0776439 25.6535526,45.9063333 C25.5605794,45.8408322 25.4284596,45.7753311 25.3990996,45.6544061 C25.3697397,45.533481 25.4431396,45.4024788 25.4724995,45.2916308 C25.5507927,44.9993952 25.6339793,44.7071596 25.7171658,44.4098854 C25.9814054,43.472716 26.216285,42.5254696 26.4609513,41.5832616 C27.2487767,38.5954044 27.9142689,35.5470846 29.1131337,32.6952681 C29.4850264,31.8034456 29.8030926,30.780621 30.380505,29.9996465 C30.6496379,29.6368712 31.0411039,29.32952 31.3787434,29.0423229 C32.469955,28.1253077 33.7764729,27.490451 35.0095909,26.8102475 C35.7240164,26.4172409 36.409082,25.9788875 37.0892543,25.5354955 C37.8575064,25.031641 38.6159718,24.4522084 39.1884909,23.7115422 C39.3157174,23.5452702 39.4820904,23.3890753 39.5848503,23.2026492 C39.6925034,23.0061459 39.6435702,22.7693343 39.6582501,22.5526769 C39.6827168,22.2402871 39.7414367,21.9480515 39.74633,21.6255846 C39.74633,21.3131948 39.8197299,21.0108821 39.8344099,20.6984923 C39.8588765,20.114021 39.8344099,19.5245113 39.8344099,18.94004 C39.8344099,17.6753652 39.8637698,16.4056519 39.8344099,15.140977 C39.8246232,14.8033945 39.76101,14.4607735 39.74633,14.1231909 C39.6876101,12.7980536 39.6876101,11.4678777 39.6533568,10.1427403 C39.6435702,9.8051578 39.5799569,9.46253673 39.565277,9.12495421 C39.5457037,8.61606116 39.565277,8.10716811 39.565277,7.59827505 C39.565277,7.28588526 39.5016637,6.8878402 39.5799569,6.58048895 C39.6288902,6.39406278 39.8197299,6.32352315 39.971423,6.24290643 C40.3531024,6.04640317 40.7494617,5.87005409 41.1360344,5.68362792 C42.3300059,5.11427233 43.5141906,4.51468546 44.6934821,3.90502151 C44.9038951,3.79921206 45.1094148,3.68332552 45.3247211,3.59263171 C45.5693874,3.48682227 45.8678802,3.40620555 46,3.15427829 C44.3998826,2.35314962 42.7948718,1.51675114 41.1066745,0.907087184 C40.3188491,0.62492866 39.4918771,0.36796286 38.6746917,0.206729418 C38.302799,0.136189787 37.9260129,0.110997061 37.5590135,0.035418885 C37.2703073,-0.025043656 36.9522411,0.0102261595 36.6586416,0.0102261595 C35.6212566,0.0102261595 34.5838716,0.262153414 33.7373263,0.897010094 C33.4877667,1.08343626 33.2333138,1.27490098 33.0522607,1.53690532 C32.890781,1.77371694 32.7978078,2.10122237 32.6999413,2.36826526 C32.4650617,3.01823757 32.2986886,3.67828698 32.1421022,4.35345202 C31.9365825,5.22008178 31.8778626,6.11190425 31.7946761,6.99868819 C31.628303,8.80248733 31.7114895,10.6163636 31.8827559,12.4151242 C31.9072225,12.6468972 31.8729693,12.8786703 31.8974359,13.1104434 C32.019769,14.1786149 32.1567821,15.2367094 32.2546487,16.304881 C32.3231552,17.0808169 32.4357017,17.8819456 32.3280485,18.6679586 C32.1861421,19.6807062 31.7163829,20.4818348 31.2319436,21.3535031 C30.5224114,22.6232165 29.7541593,23.85766 29.0054805,25.1021807 C27.8359757,27.0520976 26.5588178,28.9768218 25.5605794,31.0275097 C25.1886866,31.7933685 24.7874339,32.5592274 24.4546878,33.3452404 C24.3785236,33.5244966 22.7779681,37.5859146 22.1588166,40.5878751 C21.3857158,44.33626 21.5544747,47.2177971 21.3425328,47.8864815 Z" id="Shape"></path>
                    <path d="M6,30 C6.73869215,29.9655359 7.51140301,29.7095165 8.23065589,29.5519661 C9.76149816,29.222095 11.2972003,28.8676067 12.8329023,28.5672763 C15.0343993,28.1340127 17.2407561,27.6367443 19.4033746,27.0311601 C20.4044968,26.7505235 21.4590771,26.5880496 22.4310404,26.2237144 C24.5547803,25.4261156 26.3869312,24.0180091 27.8448763,22.2751081 C29.2590829,20.5814415 30.2310463,18.6268321 30.7267476,16.4703614 C30.848243,15.9287819 30.9502992,15.3970494 30.9600188,14.8406996 C30.9648786,14.6929962 31.0474955,14.4517471 30.9600188,14.3237375 C30.8725421,14.1957278 30.610112,14.176034 30.4691773,14.1661871 C30.0366536,14.1317229 29.6041299,14.1071057 29.1764661,14.0627947 C28.1510447,13.9643257 27.0770252,13.9938664 26.0516039,14.0677181 C25.8134729,14.0824884 25.5753419,14.0529478 25.3372108,14.077565 C25.1671172,14.0972588 25.0116031,14.1711105 24.8463693,14.1957278 C24.5547803,14.2400388 24.2486119,14.220345 23.9521631,14.2646561 C23.7820695,14.2892733 23.6265553,14.3631251 23.4613216,14.3828189 C21.1188899,14.6634555 18.8056171,15.480748 16.6284192,16.3768158 C15.1267358,16.992247 13.6153328,17.617525 12.3420609,18.6612963 C9.74205889,20.7980733 8.27925405,23.9540043 7.10803822,27.0557773 L6.35476662,29.0448508 C6.22841139,29.3599516 6.06803743,29.6701289 6,30" id="Shape"></path>
                    <path d="M4,37 C4.37219171,36.9839154 4.73914129,36.8713231 5.10609086,36.8177077 C6.31178233,36.640777 7.51223165,36.4102309 8.71792312,36.2279386 C11.0297054,35.8794386 13.351972,35.5631079 15.6532701,35.1502695 C16.8065402,34.9465311 17.9702946,34.7696003 19.1235647,34.5605004 C19.8627059,34.4264619 20.6175736,34.3621235 21.2938093,33.9814543 C22.6724913,33.1986698 23.4797803,31.7028008 24.2451323,30.3516933 C24.4757863,29.9388549 24.884673,29.5313781 25,29.0702858 C23.4955067,29.0702858 21.9805292,28.952332 20.4707938,29.022032 C20.2611083,29.0327551 20.056665,29.0970935 19.8469795,29.1131781 C17.5247129,29.2793858 15.228657,29.5367396 12.9588118,30.1265087 C12.0414378,30.3677779 11.1502746,30.7162779 10.2591113,31.0379701 C9.44658013,31.3328547 8.66550175,31.6706316 7.90014978,32.0727469 C7.12431353,32.4748622 6.42710934,32.871616 5.83999001,33.5525313 C5.31577634,34.1637466 4.99076385,34.9518926 4.63954069,35.6703387 C4.42985522,36.0992617 4.11532701,36.5389078 4,37" id="Shape"></path>
                    <path d="M0,49.9846775 L1.57901014,49.9846775 C1.82707215,49.9846775 2.13237925,50.0316026 2.36612999,49.9612149 C2.76207513,49.8439021 3.13416816,49.4028059 3.46332737,49.1634878 C4.33154442,48.5299986 5.19976148,47.8918168 6.09183065,47.3005602 C9.2450805,45.2217771 12.6416219,43.1101464 14.8789505,40.022473 C15.3225999,39.4077538 15.6660704,38.7179544 16,38.0375401 C15.718545,37.9530749 15.4132379,38.0375401 15.1222421,38.0375401 C14.3828265,38.0375401 13.6624925,38.0891577 12.9326178,38.1220053 C10.4472272,38.2299331 7.95229577,38.3050133 5.56708408,39.088663 C4.90876565,39.3045185 4.2647585,39.5813768 3.68276685,39.9520853 C3.47286822,40.0834757 3.20095408,40.214866 3.04830054,40.4166441 C2.82409064,40.7122724 2.72391175,41.1862161 2.60465116,41.5334621 C2.37090042,42.2138764 2.09898629,42.8661357 1.90816935,43.5606276 C1.55992844,44.8322985 1.15921288,46.0898919 0.796660704,47.3568704 C0.543828265,48.2156002 0.362552177,49.1634878 0,49.9846775 Z" id="Shape"></path>
                </g>
            </g>
        </g>
    </g>
</svg>